<?xml version="1.0" encoding="UTF-8"?>
<svg width="2500px" height="847px" viewBox="0 0 2500 847" version="1.1" xmlns="http://www.w3.org/2000/svg" xmlns:xlink="http://www.w3.org/1999/xlink">
    <title>appstore_button</title>
    <g id="Page-3" stroke="none" stroke-width="1" fill="none" fill-rule="evenodd">
        <g id="appstore_button" fill-rule="nonzero">
            <path d="M101.557211,0 L2398.44279,0 C2454.46852,0 2500,45.5314827 2500,101.557211 L2500,744.752877 C2500,800.778605 2454.46852,846.310088 2398.44279,846.310088 L101.557211,846.310088 C45.5314827,846.310088 0,800.778605 0,744.752877 L0,101.557211 C0,45.5314827 45.5314827,0 101.557211,0 Z" id="background"></path>
            <g id="icon" transform="translate(221.694490, 148.950575)" fill="#FBF4E9">
                <path d="M325.529612,254.908599 C325.021826,194.312796 375.123384,164.861205 377.32379,163.507109 C348.887771,122.207177 304.879646,116.452268 289.476803,115.944482 C252.577683,112.051456 216.694135,138.117806 197.906051,138.117806 C178.779443,138.117806 149.666376,116.452268 118.522165,116.960054 C78.4070667,117.637102 40.6616368,140.825999 20.1809327,177.04807 C-22.3038338,250.677048 9.34816353,359.004739 50.1403098,418.58497 C70.6210139,447.698037 94.3176964,480.365606 125.63117,479.180772 C156.098333,477.995938 167.60815,459.71564 204.338008,459.71564 C240.898604,459.71564 251.562111,479.180772 283.38337,478.503724 C316.220201,477.995938 336.700906,449.221395 356.504562,419.769804 C380.031982,386.425186 389.510655,353.419093 389.849179,351.726473 C389.002869,351.387949 326.20666,327.352742 325.529612,254.908599" id="Fill-2"></path>
                <path d="M265.441596,76.844956 C281.860012,56.3642519 293.031305,28.436019 289.984589,0 C266.287906,1.01557211 236.497791,16.4184157 219.402327,36.5605958 C204.338008,54.3331077 190.797046,83.2769127 194.182287,110.528097 C220.925686,112.559242 248.346132,96.9871361 265.441596,76.844956" id="Fill-3"></path>
            </g>
            <g id="Group" transform="translate(778.436019, 370.345295)" fill="#FBF4E9">
                <path d="M210.900474,253.554502 L168.246445,253.554502 L144.888287,180.094787 L63.6425186,180.094787 L41.4691943,253.554502 L3.84763311e-14,253.554502 L80.3994584,3.55450237 L130.162492,3.55450237 L210.900474,253.554502 Z M137.948544,149.2891 L116.790792,84.1232227 C114.590386,77.352742 110.358835,61.7806364 104.265403,37.0683819 L103.419093,37.0683819 C100.880162,47.731889 96.9871361,63.4732566 91.5707515,84.1232227 L70.7515234,149.2891 L137.948544,149.2891 Z" id="Fill-4"></path>
                <path d="M417.569397,161.306703 C417.569397,191.943128 409.275559,216.147596 392.518619,233.920108 C377.623561,249.830738 359.004739,257.616791 337.000677,257.616791 C313.134733,257.616791 296.039269,249.15369 285.545024,232.058226 L285.545024,326.675694 L245.429926,326.675694 L245.429926,132.53216 C245.429926,113.23629 244.922139,93.6018957 243.906567,73.2904536 L279.113067,73.2904536 L281.313473,101.895735 L281.990521,101.895735 C295.362221,80.3994584 315.673663,69.5666892 342.755586,69.5666892 C364.0826,69.5666892 381.68585,78.0297901 395.903859,94.7867299 C410.460393,111.712932 417.569397,133.716994 417.569397,161.306703 L417.569397,161.306703 Z M376.777251,162.660799 C376.777251,145.057549 372.884225,130.670278 364.92891,119.329722 C356.296547,107.481381 344.617468,101.557211 330.060934,101.557211 C320.243737,101.557211 311.27285,104.942451 303.148274,111.374408 C295.192959,117.975626 289.776574,126.438727 287.406906,137.102234 C286.222072,142.010833 285.545024,146.073121 285.545024,149.2891 L285.545024,179.417739 C285.545024,192.450914 289.607312,203.622207 297.562627,212.593094 C305.517942,221.563981 316.012187,226.134056 328.8761,226.134056 C343.94042,226.134056 355.619499,220.209885 364.0826,208.700068 C372.545701,197.020988 376.777251,181.787407 376.777251,162.660799 Z" id="Fill-5"></path>
                <path d="M624.746107,161.306703 C624.746107,191.943128 616.452268,216.147596 599.695328,233.920108 C584.800271,249.830738 566.181449,257.616791 544.177387,257.616791 C520.311442,257.616791 503.215978,249.15369 492.721733,232.058226 L492.721733,326.675694 L452.606635,326.675694 L452.606635,132.53216 C452.606635,113.23629 452.098849,93.6018957 451.083277,73.2904536 L486.289777,73.2904536 L488.490183,101.895735 L489.167231,101.895735 C502.53893,80.3994584 522.850372,69.5666892 549.932295,69.5666892 C571.259309,69.5666892 588.862559,78.0297901 603.080569,94.7867299 C617.637102,111.712932 624.746107,133.716994 624.746107,161.306703 Z M583.953961,162.660799 C583.953961,145.057549 580.060934,130.670278 572.105619,119.329722 C563.473257,107.481381 551.794177,101.557211 537.237644,101.557211 C527.420447,101.557211 518.44956,104.942451 510.324983,111.374408 C502.369668,117.975626 497.122546,126.438727 494.583615,137.102234 C493.398781,142.010833 492.721733,146.073121 492.721733,149.2891 L492.721733,179.417739 C492.721733,192.450914 496.784022,203.622207 504.739336,212.593094 C512.694651,221.563981 523.188896,226.134056 536.05281,226.134056 C551.117129,226.134056 562.965471,220.209885 571.259309,208.700068 C579.891672,197.020988 583.953961,181.787407 583.953961,162.660799 Z" id="Fill-6"></path>
                <path d="M856.635071,183.480027 C856.635071,204.807041 849.187542,222.071767 834.461747,235.443466 C818.212593,250 795.531483,257.278267 766.418416,257.278267 C739.505755,257.278267 718.009479,252.031144 701.760325,241.706161 L711.069736,208.361544 C728.672986,218.686527 747.968856,223.933649 768.957346,223.933649 C784.021666,223.933649 795.870007,220.548409 804.163846,213.777928 C812.626947,207.007448 816.858497,197.867299 816.858497,186.526743 C816.858497,176.371022 813.303995,167.907921 806.533514,160.968179 C799.593771,154.028436 788.083954,147.596479 772.004062,141.672309 C727.826676,125.253893 705.991875,101.387949 705.991875,70.0744753 C705.991875,49.5937712 713.777928,32.8368314 729.180772,19.634394 C744.583615,6.60121869 765.06432,4.88588332e-15 790.622884,4.88588332e-15 C813.303995,4.88588332e-15 832.261341,3.8930264 847.32566,11.8483412 L837.169939,44.3466486 C822.95193,36.7298578 807.0413,32.8368314 789.099526,32.8368314 C775.050779,32.8368314 763.879485,36.3913338 755.924171,43.1618145 C749.322952,49.4245091 745.937712,56.8720379 745.937712,65.8429248 C745.937712,75.6601219 749.830738,83.9539607 757.447529,90.2166554 C764.048747,96.140826 776.235613,102.572783 793.838863,109.512525 C815.335139,118.144888 831.076506,128.300609 841.232227,139.979689 C851.557211,151.658768 856.635071,166.215301 856.635071,183.480027" id="Fill-7"></path>
                <path d="M989.336493,103.419093 L945.159106,103.419093 L945.159106,190.927556 C945.159106,213.10088 952.945159,224.272173 968.517265,224.272173 C975.626269,224.272173 981.55044,223.595125 986.289777,222.410291 L987.474611,252.877454 C979.519296,255.754909 969.194313,257.278267 956.330399,257.278267 C940.41977,257.278267 928.232905,252.369668 919.262018,242.721733 C910.291131,233.073798 905.890318,216.824645 905.890318,194.143534 L905.890318,103.249831 L879.654705,103.249831 L879.654705,73.2904536 L905.890318,73.2904536 L905.890318,40.2843602 L945.159106,28.436019 L945.159106,73.2904536 L989.336493,73.2904536 L989.336493,103.419093" id="Fill-8"></path>
                <path d="M1188.0501,161.983751 C1188.0501,189.742722 1180.09479,212.423832 1164.35342,230.196344 C1147.76574,248.476642 1125.76168,257.616791 1098.34123,257.616791 C1071.93636,257.616791 1050.77861,248.815166 1035.03724,231.381178 C1019.29587,213.94719 1011.50982,191.773866 1011.50982,165.030467 C1011.50982,137.102234 1019.63439,114.251862 1035.71429,96.47935 C1051.96344,78.7068382 1073.79824,69.7359513 1101.21869,69.7359513 C1127.62356,69.7359513 1148.95058,78.5375762 1165.03047,96.140826 C1180.43331,113.067028 1188.0501,135.07109 1188.0501,161.983751 L1188.0501,161.983751 Z M1146.58091,162.830061 C1146.58091,146.242383 1143.0264,132.193636 1135.9174,120.345295 C1127.4543,105.958023 1115.4367,98.8490183 1099.86459,98.8490183 C1083.7847,98.8490183 1071.42857,105.958023 1063.13473,120.345295 C1055.85647,132.193636 1052.47123,146.580907 1052.47123,163.676371 C1052.47123,180.264049 1056.02573,194.482058 1063.13473,206.161137 C1071.7671,220.548409 1083.95396,227.657414 1099.52607,227.657414 C1114.75965,227.657414 1126.77725,220.379147 1135.57888,205.822613 C1142.85714,193.635748 1146.58091,179.417739 1146.58091,162.830061 L1146.58091,162.830061 Z" id="Fill-9"></path>
                <path d="M1318.38186,108.496953 C1314.48883,107.819905 1310.25728,107.481381 1305.6872,107.481381 C1291.63846,107.481381 1280.63643,112.728504 1273.01963,123.392011 C1266.41842,132.701422 1263.03318,144.719025 1263.03318,158.937035 L1263.03318,253.554502 L1222.91808,253.554502 L1222.91808,129.99323 C1222.91808,109.174001 1222.57955,90.2166554 1221.73324,73.2904536 L1256.60122,73.2904536 L1258.12458,107.819905 L1259.30941,107.819905 C1263.54096,95.971564 1270.14218,86.323629 1279.28233,79.2146242 C1288.25322,72.7826676 1297.90115,69.5666892 1308.22613,69.5666892 C1311.9499,69.5666892 1315.33514,69.9052133 1318.21259,70.2437373 L1318.38186,108.496953" id="Fill-10"></path>
                <path d="M1497.46107,154.874746 C1497.46107,161.983751 1496.95328,168.077183 1495.93771,172.985782 L1375.76168,172.985782 C1376.26947,190.758294 1382.02437,204.468517 1393.19567,213.777928 C1403.35139,222.071767 1416.38456,226.303318 1432.46445,226.303318 C1450.23697,226.303318 1466.48612,223.425863 1481.04265,217.840217 L1487.30535,245.599188 C1470.20988,253.046716 1450.0677,256.770481 1426.87881,256.770481 C1398.95058,256.770481 1376.94651,248.476642 1361.03588,232.058226 C1345.12525,215.63981 1337.16994,193.466486 1337.16994,165.876777 C1337.16994,138.794854 1344.61747,116.113744 1359.51253,98.0027082 C1375.08463,78.7068382 1396.07312,69.0589032 1422.478,69.0589032 C1448.37508,69.0589032 1468.17874,78.7068382 1481.38118,98.0027082 C1492.04469,113.574814 1497.46107,132.362898 1497.46107,154.874746 L1497.46107,154.874746 Z M1459.20785,144.549763 C1459.54638,132.701422 1456.83819,122.376439 1451.4218,113.744076 C1444.48206,102.572783 1433.81855,96.9871361 1419.60054,96.9871361 C1406.56737,96.9871361 1395.90386,102.403521 1387.77928,113.23629 C1381.17806,121.868653 1377.11578,132.362898 1375.93094,144.380501 L1459.20785,144.549763 L1459.20785,144.549763 Z" id="Fill-11"></path>
            </g>
            <g id="Available-on-the" transform="translate(793.331077, 155.213270)" fill="#FBF4E9">
                <path d="M103.757617,129.316181 L82.7691266,129.316181 L71.2593094,93.2633717 L31.3134733,93.2633717 L20.3114421,129.316181 L1.80401846e-14,129.316181 L39.4380501,6.43195667 L63.8117806,6.43195667 L103.757617,129.316181 Z M67.704807,78.0297901 L57.379824,45.8700068 C56.3642519,42.6540284 54.3331077,34.8679756 51.1171293,22.6811104 L50.7786053,22.6811104 C49.4245091,27.9282329 47.731889,35.5450237 44.8544347,45.8700068 L34.6987136,78.0297901 L67.704807,78.0297901 Z" id="Fill-12"></path>
                <path d="M202.606635,40.6228842 L169.092756,129.316181 L149.966148,129.316181 L117.46784,40.6228842 L138.625592,40.6228842 L153.689912,87.5084631 C156.228842,95.2945159 158.429248,102.742045 160.121869,109.851049 L160.629655,109.851049 C162.153013,103.419093 164.353419,95.971564 167.061611,87.5084631 L181.956669,40.6228842 L202.606635,40.6228842" id="Fill-13"></path>
                <path d="M274.035206,129.316181 L272.511848,119.16046 L272.004062,119.16046 C265.91063,127.285037 257.278267,131.347326 246.106974,131.347326 C230.196344,131.347326 219.025051,120.176032 219.025051,105.280975 C219.025051,83.4461747 237.982397,72.1056195 270.819228,72.1056195 L270.819228,70.4129993 C270.819228,58.7339201 264.556534,52.9790115 252.369668,52.9790115 C243.568043,52.9790115 235.951253,55.1794177 229.180772,59.5802302 L225.118483,46.7163169 C233.24306,41.6384563 243.568043,39.0995261 255.585647,39.0995261 C278.774543,39.0995261 290.453622,51.2863913 290.453622,75.8293839 L290.453622,108.496953 C290.453622,117.46784 290.792146,124.407583 291.807718,129.654705 L274.035206,129.316181 L274.035206,129.316181 Z M271.327014,85.1387949 C249.492214,85.1387949 238.490183,90.3859174 238.490183,103.080569 C238.490183,112.38998 244.075829,116.960054 252.031144,116.960054 C262.017603,116.960054 271.327014,109.343263 271.327014,98.8490183 L271.327014,85.1387949 Z" id="Fill-14"></path>
                <path d="M334.292485,26.0663507 C327.691266,26.0663507 322.613406,20.9884902 322.613406,14.2180095 C322.613406,7.44752877 327.860528,2.53893026 334.631009,2.53893026 C341.40149,2.53893026 346.817874,7.44752877 346.648612,14.2180095 C346.648612,21.3270142 341.570752,26.0663507 334.292485,26.0663507 L334.292485,26.0663507 Z M324.813812,40.6228842 L344.448206,40.6228842 L344.448206,129.146919 L324.813812,129.146919 L324.813812,40.6228842 Z" id="Fill-15"></path>
                <polygon id="Fill-16" points="379.485443 -4.88588332e-15 399.119838 -4.88588332e-15 399.119838 129.146919 379.485443 129.146919"></polygon>
                <path d="M482.735274,129.316181 L481.211916,119.16046 L480.70413,119.16046 C474.610697,127.285037 465.978334,131.347326 454.807041,131.347326 C438.896412,131.347326 427.725118,120.176032 427.725118,105.280975 C427.725118,83.4461747 446.682464,72.1056195 479.519296,72.1056195 L479.519296,70.4129993 C479.519296,58.7339201 473.256601,52.9790115 461.069736,52.9790115 C452.268111,52.9790115 444.65132,55.1794177 437.88084,59.5802302 L433.818551,46.5470548 C441.943128,41.4691943 452.268111,38.930264 464.285714,38.930264 C487.474611,38.930264 499.15369,51.1171293 499.15369,75.6601219 L499.15369,108.327691 C499.15369,117.298578 499.492214,124.238321 500.338524,129.485443 L482.735274,129.485443 L482.735274,129.316181 L482.735274,129.316181 Z M480.027082,85.1387949 C458.192282,85.1387949 447.190251,90.3859174 447.190251,103.080569 C447.190251,112.38998 452.775897,116.960054 460.731212,116.960054 C470.717671,116.960054 480.027082,109.343263 480.027082,98.8490183 L480.027082,85.1387949 Z" id="Fill-17"></path>
                <path d="M579.045362,131.347326 C566.519973,131.347326 557.210562,126.100203 551.117129,115.605958 L550.778605,115.605958 L549.593771,129.316181 L532.836831,129.316181 C533.344617,122.207177 533.513879,114.251862 533.513879,105.450237 L533.513879,0 L553.317536,0 L553.317536,53.6560596 L553.65606,53.6560596 C559.58023,43.8388626 568.889641,38.930264 581.922817,38.930264 C603.249831,38.930264 618.144888,57.2105619 618.144888,83.7846987 C618.144888,111.205146 601.557211,131.347326 579.045362,131.347326 L579.045362,131.347326 Z M574.983074,54.3331077 C563.642519,54.3331077 553.317536,64.1503047 553.317536,77.8605281 L553.317536,93.4326337 C553.317536,105.619499 562.626947,115.605958 574.64455,115.605958 C589.370345,115.605958 598.17197,103.588355 598.17197,84.4617468 C598.17197,66.5199729 589.031821,54.3331077 574.983074,54.3331077 L574.983074,54.3331077 Z" id="Fill-18"></path>
                <polygon id="Fill-19" points="647.257955 -4.88588332e-15 666.892349 -4.88588332e-15 666.892349 129.146919 647.257955 129.146919"></polygon>
                <path d="M774.035206,89.7088693 L714.962762,89.7088693 C715.301286,106.465809 726.47258,115.944482 742.890995,115.944482 C751.69262,115.944482 759.647935,114.421124 766.75694,111.712932 L769.803656,125.423155 C761.509817,129.146919 751.69262,130.83954 740.182803,130.83954 C712.423832,130.83954 696.005416,113.405552 696.005416,86.154367 C696.005416,59.0724441 712.762356,38.59174 737.982397,38.59174 C760.494245,38.59174 774.881517,55.3486798 774.881517,80.7379824 C774.881517,84.2924848 774.712255,87.3392011 774.035206,89.7088693 Z M756.093433,75.6601219 C756.093433,61.9498984 749.15369,52.3019634 736.628301,52.3019634 C725.287745,52.3019634 716.486121,62.1191605 715.132024,75.6601219 L756.093433,75.6601219 Z" id="Fill-20"></path>
                <path d="M893.364929,131.347326 C867.46784,131.347326 850.7109,112.051456 850.7109,85.8158429 C850.7109,58.3953961 867.806364,38.930264 894.888287,38.930264 C920.446852,38.930264 937.542316,57.379824 937.542316,84.2924848 C937.542316,111.882194 919.939066,131.347326 893.364929,131.347326 Z M894.211239,53.3175355 C879.99323,53.3175355 870.853081,66.6892349 870.853081,85.1387949 C870.853081,103.419093 880.162492,116.62153 894.041977,116.62153 C907.921462,116.62153 917.230873,102.403521 917.230873,84.6310088 C917.061611,66.6892349 908.090724,53.3175355 894.211239,53.3175355 L894.211239,53.3175355 Z" id="Fill-21"></path>
                <path d="M1043.33108,129.316181 L1023.69668,129.316181 L1023.69668,78.3683142 C1023.69668,62.6269465 1017.60325,54.8408937 1005.75491,54.8408937 C994.075829,54.8408937 986.120515,64.8273527 986.120515,76.506432 L986.120515,129.146919 L966.486121,129.146919 L966.486121,66.0121869 C966.486121,58.2261341 966.316858,49.7630332 965.809072,40.6228842 L983.073798,40.6228842 L983.920108,54.3331077 L984.427894,54.3331077 C989.675017,44.8544347 1000.50779,38.761002 1012.52539,38.761002 C1031.14421,38.761002 1043.33108,52.9790115 1043.33108,76.1679079 L1043.33108,129.316181" id="Fill-22"></path>
                <path d="M1172.13947,55.5179418 L1150.47393,55.5179418 L1150.47393,98.5104942 C1150.47393,109.512525 1154.36696,114.92891 1161.98375,114.92891 C1165.36899,114.92891 1168.41571,114.590386 1170.78538,114.0826 L1171.29316,128.977657 C1167.40014,130.501016 1162.32227,131.178064 1156.05958,131.178064 C1140.48747,131.178064 1131.34733,122.545701 1131.34733,100.203114 L1131.34733,55.5179418 L1118.48341,55.5179418 L1118.48341,40.7921462 L1131.34733,40.7921462 L1131.34733,24.5429926 L1150.6432,18.6188219 L1150.6432,40.6228842 L1172.30873,40.6228842 L1172.30873,55.5179418" id="Fill-23"></path>
                <path d="M1276.40487,129.316181 L1256.77048,129.316181 L1256.77048,78.7068382 C1256.77048,62.7962085 1250.67705,54.8408937 1238.82871,54.8408937 C1228.67299,54.8408937 1219.19431,61.7806364 1219.19431,75.8293839 L1219.19431,129.146919 L1199.55992,129.146919 L1199.55992,-4.88588332e-15 L1219.19431,-4.88588332e-15 L1219.19431,53.1482735 L1219.53284,53.1482735 C1225.79553,43.5003385 1234.59716,38.761002 1246.10697,38.761002 C1264.89506,38.761002 1276.40487,53.3175355 1276.40487,76.506432 L1276.40487,129.316181" id="Fill-24"></path>
                <path d="M1376.94651,89.7088693 L1317.87407,89.7088693 C1318.21259,106.465809 1329.38389,115.944482 1345.8023,115.944482 C1354.60393,115.944482 1362.55924,114.421124 1369.66825,111.712932 L1372.71496,125.423155 C1364.42112,129.146919 1354.60393,130.83954 1343.09411,130.83954 C1315.33514,130.83954 1298.91672,113.405552 1298.91672,86.154367 C1298.91672,59.0724441 1315.67366,38.59174 1340.8937,38.59174 C1363.40555,38.59174 1377.79282,55.3486798 1377.79282,80.7379824 C1377.79282,84.2924848 1377.62356,87.3392011 1376.94651,89.7088693 L1376.94651,89.7088693 Z M1359.00474,75.6601219 C1359.00474,61.9498984 1352.065,52.3019634 1339.53961,52.3019634 C1328.19905,52.3019634 1319.22817,62.1191605 1318.04333,75.6601219 L1359.00474,75.6601219 Z" id="Fill-25"></path>
            </g>
        </g>
    </g>
</svg>