<svg width="108" height="113" viewBox="0 0 108 113" fill="none" xmlns="http://www.w3.org/2000/svg">
<path fill-rule="evenodd" clip-rule="evenodd" d="M56.5099 43.6066C56.5099 46.3681 58.7485 48.6066 61.5099 48.6066H99.2791C102.041 48.6066 104.279 46.3681 104.279 43.6066V5.83745C104.279 3.07602 102.041 0.837448 99.2791 0.837448H61.5099C58.7485 0.837448 56.5099 3.07603 56.5099 5.83745V43.6066ZM0.166748 5.83745C0.166748 3.07603 2.40532 0.837452 5.16675 0.837452H42.9359C45.6974 0.837452 47.9359 3.07603 47.9359 5.83745V107.299C47.9359 110.06 45.6974 112.299 42.9359 112.299H5.16675C2.40533 112.299 0.166748 110.06 0.166748 107.299V5.83745ZM107.546 84.3315C107.546 98.8755 95.7552 110.666 81.2112 110.666C66.6672 110.666 54.8769 98.8755 54.8769 84.3315C54.8769 69.7875 66.6672 57.9972 81.2112 57.9972C95.7552 57.9972 107.546 69.7875 107.546 84.3315Z" fill="url(#paint0_linear)"/>
<defs>
<linearGradient id="paint0_linear" x1="53.8561" y1="0.837448" x2="53.8561" y2="112.299" gradientUnits="userSpaceOnUse">
<stop stop-color="#59C1B7"/>
<stop offset="1" stop-color="#039988"/>
</linearGradient>
</defs>
</svg>
