<?xml version="1.0" encoding="UTF-8"?>
<svg width="218px" height="407px" viewBox="0 0 218 407" version="1.1" xmlns="http://www.w3.org/2000/svg" xmlns:xlink="http://www.w3.org/1999/xlink">
    <title>Combined Shape</title>
    <g id="Page-3" stroke="none" stroke-width="1" fill="none" fill-rule="evenodd">
        <path d="M175,0 C198.748244,0 218,19.2517558 218,43 L218,43 L218,364 C218,387.748244 198.748244,407 175,407 L175,407 L43,407 C19.2517558,407 0,387.748244 0,364 L0,364 L0,43 C0,19.2517558 19.2517558,0 43,0 L43,0 Z M175,12 L157,12 L157,15 C157,21.627417 151.627417,27 145,27 L73,27 C66.372583,27 61,21.627417 61,15 L61,12 L43,12 C26.050381,12 12.2779076,25.6029772 12.0041531,42.4873583 L12,43 L12,364 C12,381.120827 25.8791728,395 43,395 L43,395 L175,395 C192.120827,395 206,381.120827 206,364 L206,364 L206,43 C206,25.8791728 192.120827,12 175,12 L175,12 Z" id="Combined-Shape" fill="#FBF4E9" fill-rule="nonzero"></path>
    </g>
</svg>