<?xml version="1.0" encoding="UTF-8"?>
<svg width="108px" height="112px" viewBox="0 0 108 112" version="1.1" xmlns="http://www.w3.org/2000/svg" xmlns:xlink="http://www.w3.org/1999/xlink">
    <title>Group</title>
    <g id="Page-2" stroke="none" stroke-width="1" fill="none" fill-rule="evenodd">
        <g id="Group" fill="#47B8AF">
            <path d="M56.343152,42.769152 C56.343152,45.530652 58.581752,47.769152 61.343152,47.769152 L99.112352,47.769152 C101.874252,47.769152 104.112252,45.530652 104.112252,42.769152 L104.112252,5 C104.112252,2.238572 101.874252,1.0658141e-14 99.112352,1.0658141e-14 L61.343152,1.0658141e-14 C58.581752,1.0658141e-14 56.343152,2.238582 56.343152,5 L56.343152,42.769152 Z" id="Path"></path>
            <path d="M-3.55271368e-15,5.000004 C-3.55271368e-15,2.238582 2.238572,3.99999998e-06 5,3.99999998e-06 L42.769152,3.99999998e-06 C45.530652,3.99999998e-06 47.769152,2.238582 47.769152,5.000004 L47.769152,106.461552 C47.769152,109.222552 45.530652,111.461552 42.769152,111.461552 L5,111.461552 C2.238582,111.461552 -3.55271368e-15,109.222552 -3.55271368e-15,106.461552 L-3.55271368e-15,5.000004 Z" id="Path"></path>
            <path d="M107.379252,83.494052 C107.379252,98.038052 95.588452,109.828552 81.044452,109.828552 C66.500452,109.828552 54.710152,98.038052 54.710152,83.494052 C54.710152,68.950052 66.500452,57.159752 81.044452,57.159752 C95.588452,57.159752 107.379252,68.950052 107.379252,83.494052 Z" id="Path"></path>
        </g>
    </g>
</svg>