<?xml version="1.0" encoding="UTF-8"?>
<svg width="434px" height="499px" viewBox="0 0 434 499" version="1.1" xmlns="http://www.w3.org/2000/svg" xmlns:xlink="http://www.w3.org/1999/xlink">
    <title>polyhedron</title>
    <g id="Page-5" stroke="none" stroke-width="1" fill="none" fill-rule="evenodd">
        <g id="polyhedron" fill="#FBF4E9">
            <path d="M219.697,1.22459 L217.485,0 L215.27,1.21918 L2.4767,118.347 L0.105187,119.653 L0.105187,121.033 L0,121.047 L0.105187,121.3 L0.105187,122.36 L0.105187,368.267 L0.105187,370.886 L2.36257,372.215 L213.929,496.702 L216.216,498.048 L218.522,496.732 L431.315,375.311 L433.625,373.993 L433.625,371.333 L433.625,122.776 L433.625,120.955 L433.625,119.66 L431.263,118.353 L219.697,1.22459 Z M411.904,118.105 L222.058,13.0023 L222.058,93.1986 L411.904,118.105 Z M212.898,12.9806 L21.7329,118.204 L212.898,93.197 L212.898,12.9806 Z M9.26532,143.34 L9.26532,361.389 L82.3145,319.097 L9.26532,143.34 Z M14.6835,368.836 L206.436,481.665 L86.9121,327.02 L14.6835,368.836 Z M230.081,479.59 L421.903,370.135 L347.439,327.024 L230.081,479.59 Z M424.465,361.034 L424.465,144.815 L352.029,319.097 L424.465,361.034 Z M88.758,310.733 L208.866,102.963 L13.0499,128.578 L88.758,310.733 Z M336.956,325.628 L97.4139,325.628 L217.47,480.961 L336.956,325.628 Z M421.294,128.576 L345.594,310.711 L226.068,102.963 L421.294,128.576 Z M96.0233,316.468 L217.469,106.385 L338.339,316.468 L96.0233,316.468 Z" id="Shape"></path>
        </g>
    </g>
</svg>